<mxfile host="app.diagrams.net" modified="2023-10-14T11:07:38.623Z" agent="Mozilla/5.0 (Windows NT 10.0; Win64; x64) AppleWebKit/537.36 (KHTML, like Gecko) Chrome/117.0.0.0 Safari/537.36" etag="VremruMP4N4NRskW_HFM" version="22.0.4" type="device">
  <diagram id="nMyRj4Zae5fo7YaB0NRN" name="Страница — 1">
    <mxGraphModel dx="2195" dy="1065" grid="0" gridSize="10" guides="1" tooltips="1" connect="1" arrows="1" fold="1" page="0" pageScale="1" pageWidth="827" pageHeight="1169" math="0" shadow="0">
      <root>
        <mxCell id="0" />
        <mxCell id="1" parent="0" />
        <mxCell id="InO1nQ1OVcaDTMDRn9g--3" value="" style="edgeStyle=none;curved=1;rounded=0;orthogonalLoop=1;jettySize=auto;html=1;fontSize=12;startSize=8;endSize=8;" parent="1" source="InO1nQ1OVcaDTMDRn9g--1" target="InO1nQ1OVcaDTMDRn9g--2" edge="1">
          <mxGeometry relative="1" as="geometry" />
        </mxCell>
        <mxCell id="InO1nQ1OVcaDTMDRn9g--1" value="Начало" style="rounded=1;whiteSpace=wrap;html=1;fontSize=16;" parent="1" vertex="1">
          <mxGeometry x="-254.5" y="-388" width="120" height="60" as="geometry" />
        </mxCell>
        <mxCell id="InO1nQ1OVcaDTMDRn9g--5" value="" style="edgeStyle=none;curved=1;rounded=0;orthogonalLoop=1;jettySize=auto;html=1;fontSize=12;startSize=8;endSize=8;" parent="1" source="InO1nQ1OVcaDTMDRn9g--2" target="InO1nQ1OVcaDTMDRn9g--4" edge="1">
          <mxGeometry relative="1" as="geometry" />
        </mxCell>
        <mxCell id="InO1nQ1OVcaDTMDRn9g--2" value="size" style="shape=parallelogram;perimeter=parallelogramPerimeter;whiteSpace=wrap;html=1;fixedSize=1;fontSize=16;" parent="1" vertex="1">
          <mxGeometry x="-254.5" y="-275" width="120" height="60" as="geometry" />
        </mxCell>
        <mxCell id="InO1nQ1OVcaDTMDRn9g--7" value="" style="edgeStyle=none;curved=1;rounded=0;orthogonalLoop=1;jettySize=auto;html=1;fontSize=12;startSize=8;endSize=8;entryX=0.5;entryY=0;entryDx=0;entryDy=0;exitX=0.5;exitY=1;exitDx=0;exitDy=0;" parent="1" source="InO1nQ1OVcaDTMDRn9g--4" target="InO1nQ1OVcaDTMDRn9g--19" edge="1">
          <mxGeometry relative="1" as="geometry">
            <mxPoint x="-168.5" y="-4" as="sourcePoint" />
            <mxPoint x="-194.5" y="-55" as="targetPoint" />
          </mxGeometry>
        </mxCell>
        <mxCell id="InO1nQ1OVcaDTMDRn9g--4" value="&amp;nbsp;string[] array =&amp;nbsp; &amp;nbsp;new string[size],&lt;br&gt;i = 0" style="whiteSpace=wrap;html=1;fontSize=16;" parent="1" vertex="1">
          <mxGeometry x="-269.5" y="-161" width="150" height="60" as="geometry" />
        </mxCell>
        <mxCell id="InO1nQ1OVcaDTMDRn9g--22" value="&lt;font style=&quot;font-size: 11px;&quot;&gt;да&lt;/font&gt;" style="edgeStyle=none;rounded=0;orthogonalLoop=1;jettySize=auto;html=1;fontSize=12;startSize=8;endSize=8;entryX=0.5;entryY=0;entryDx=0;entryDy=0;exitX=1;exitY=0.5;exitDx=0;exitDy=0;" parent="1" source="InO1nQ1OVcaDTMDRn9g--19" target="InO1nQ1OVcaDTMDRn9g--23" edge="1">
          <mxGeometry x="-0.7114" y="15" relative="1" as="geometry">
            <mxPoint x="-54.5" y="-18" as="targetPoint" />
            <Array as="points">
              <mxPoint x="-64.5" y="-18" />
            </Array>
            <mxPoint as="offset" />
          </mxGeometry>
        </mxCell>
        <mxCell id="tGO4g8p34yawOPrG28nG-6" value="нет" style="edgeStyle=orthogonalEdgeStyle;rounded=0;orthogonalLoop=1;jettySize=auto;html=1;" edge="1" parent="1" source="InO1nQ1OVcaDTMDRn9g--19" target="tGO4g8p34yawOPrG28nG-5">
          <mxGeometry x="-0.8101" y="-17" relative="1" as="geometry">
            <mxPoint as="offset" />
          </mxGeometry>
        </mxCell>
        <mxCell id="InO1nQ1OVcaDTMDRn9g--19" value="i &amp;lt; size" style="rhombus;whiteSpace=wrap;html=1;fontSize=16;" parent="1" vertex="1">
          <mxGeometry x="-264" y="-58" width="139" height="80" as="geometry" />
        </mxCell>
        <mxCell id="tGO4g8p34yawOPrG28nG-3" value="" style="edgeStyle=orthogonalEdgeStyle;rounded=0;orthogonalLoop=1;jettySize=auto;html=1;" edge="1" parent="1" source="InO1nQ1OVcaDTMDRn9g--23" target="tGO4g8p34yawOPrG28nG-2">
          <mxGeometry relative="1" as="geometry" />
        </mxCell>
        <mxCell id="InO1nQ1OVcaDTMDRn9g--23" value="array[i]" style="shape=parallelogram;perimeter=parallelogramPerimeter;whiteSpace=wrap;html=1;fixedSize=1;fontSize=16;" parent="1" vertex="1">
          <mxGeometry x="-124.5" y="22" width="120" height="60" as="geometry" />
        </mxCell>
        <mxCell id="tGO4g8p34yawOPrG28nG-4" style="edgeStyle=orthogonalEdgeStyle;rounded=0;orthogonalLoop=1;jettySize=auto;html=1;exitX=0;exitY=0.5;exitDx=0;exitDy=0;entryX=0.5;entryY=1;entryDx=0;entryDy=0;" edge="1" parent="1" source="tGO4g8p34yawOPrG28nG-2" target="InO1nQ1OVcaDTMDRn9g--19">
          <mxGeometry relative="1" as="geometry" />
        </mxCell>
        <mxCell id="tGO4g8p34yawOPrG28nG-2" value="i++" style="whiteSpace=wrap;html=1;fontSize=16;" vertex="1" parent="1">
          <mxGeometry x="-125" y="118" width="120" height="60" as="geometry" />
        </mxCell>
        <mxCell id="tGO4g8p34yawOPrG28nG-8" value="" style="edgeStyle=orthogonalEdgeStyle;rounded=0;orthogonalLoop=1;jettySize=auto;html=1;" edge="1" parent="1" source="tGO4g8p34yawOPrG28nG-5" target="tGO4g8p34yawOPrG28nG-7">
          <mxGeometry relative="1" as="geometry" />
        </mxCell>
        <mxCell id="tGO4g8p34yawOPrG28nG-5" value="array" style="shape=document;whiteSpace=wrap;html=1;boundedLbl=1;fontSize=16;" vertex="1" parent="1">
          <mxGeometry x="-439" y="-58" width="120" height="80" as="geometry" />
        </mxCell>
        <mxCell id="tGO4g8p34yawOPrG28nG-10" value="" style="edgeStyle=orthogonalEdgeStyle;rounded=0;orthogonalLoop=1;jettySize=auto;html=1;" edge="1" parent="1" source="tGO4g8p34yawOPrG28nG-7" target="tGO4g8p34yawOPrG28nG-9">
          <mxGeometry relative="1" as="geometry" />
        </mxCell>
        <mxCell id="tGO4g8p34yawOPrG28nG-7" value="sizeFilter" style="shape=parallelogram;perimeter=parallelogramPerimeter;whiteSpace=wrap;html=1;fixedSize=1;fontSize=16;" vertex="1" parent="1">
          <mxGeometry x="-439" y="65" width="120" height="60" as="geometry" />
        </mxCell>
        <mxCell id="tGO4g8p34yawOPrG28nG-12" value="" style="edgeStyle=orthogonalEdgeStyle;rounded=0;orthogonalLoop=1;jettySize=auto;html=1;" edge="1" parent="1" source="tGO4g8p34yawOPrG28nG-9" target="tGO4g8p34yawOPrG28nG-11">
          <mxGeometry relative="1" as="geometry">
            <Array as="points">
              <mxPoint x="-379" y="270" />
              <mxPoint x="-200" y="270" />
            </Array>
          </mxGeometry>
        </mxCell>
        <mxCell id="tGO4g8p34yawOPrG28nG-9" value="sizeFilter = sizeFilter + 1,&lt;br&gt;newSize = 0,&lt;br&gt;i = 0" style="whiteSpace=wrap;html=1;fontSize=16;" vertex="1" parent="1">
          <mxGeometry x="-473" y="168" width="188" height="72" as="geometry" />
        </mxCell>
        <mxCell id="tGO4g8p34yawOPrG28nG-14" value="да" style="edgeStyle=orthogonalEdgeStyle;rounded=0;orthogonalLoop=1;jettySize=auto;html=1;exitX=1;exitY=0.5;exitDx=0;exitDy=0;" edge="1" parent="1" source="tGO4g8p34yawOPrG28nG-11" target="tGO4g8p34yawOPrG28nG-13">
          <mxGeometry x="-0.9234" y="12" relative="1" as="geometry">
            <mxPoint as="offset" />
          </mxGeometry>
        </mxCell>
        <mxCell id="tGO4g8p34yawOPrG28nG-22" value="нет" style="edgeStyle=orthogonalEdgeStyle;rounded=0;orthogonalLoop=1;jettySize=auto;html=1;" edge="1" parent="1" source="tGO4g8p34yawOPrG28nG-11" target="tGO4g8p34yawOPrG28nG-21">
          <mxGeometry x="-0.9032" y="-17" relative="1" as="geometry">
            <mxPoint as="offset" />
          </mxGeometry>
        </mxCell>
        <mxCell id="tGO4g8p34yawOPrG28nG-11" value="i &amp;lt; size" style="rhombus;whiteSpace=wrap;html=1;fontSize=16;" vertex="1" parent="1">
          <mxGeometry x="-281" y="306" width="162" height="80" as="geometry" />
        </mxCell>
        <mxCell id="tGO4g8p34yawOPrG28nG-16" value="да" style="edgeStyle=orthogonalEdgeStyle;rounded=0;orthogonalLoop=1;jettySize=auto;html=1;entryX=1;entryY=0.5;entryDx=0;entryDy=0;" edge="1" parent="1" source="tGO4g8p34yawOPrG28nG-13" target="tGO4g8p34yawOPrG28nG-15">
          <mxGeometry x="-0.7746" y="23" relative="1" as="geometry">
            <mxPoint as="offset" />
          </mxGeometry>
        </mxCell>
        <mxCell id="tGO4g8p34yawOPrG28nG-20" value="нет" style="edgeStyle=orthogonalEdgeStyle;rounded=0;orthogonalLoop=1;jettySize=auto;html=1;" edge="1" parent="1" source="tGO4g8p34yawOPrG28nG-13" target="tGO4g8p34yawOPrG28nG-17">
          <mxGeometry x="-0.7241" y="-13" relative="1" as="geometry">
            <mxPoint as="offset" />
          </mxGeometry>
        </mxCell>
        <mxCell id="tGO4g8p34yawOPrG28nG-13" value="array[i].Length &amp;lt; sizeFilter" style="rhombus;whiteSpace=wrap;html=1;fontSize=16;" vertex="1" parent="1">
          <mxGeometry x="-53" y="401" width="280" height="80" as="geometry" />
        </mxCell>
        <mxCell id="tGO4g8p34yawOPrG28nG-18" value="" style="edgeStyle=orthogonalEdgeStyle;rounded=0;orthogonalLoop=1;jettySize=auto;html=1;" edge="1" parent="1" source="tGO4g8p34yawOPrG28nG-15" target="tGO4g8p34yawOPrG28nG-17">
          <mxGeometry relative="1" as="geometry" />
        </mxCell>
        <mxCell id="tGO4g8p34yawOPrG28nG-15" value="newSize++" style="whiteSpace=wrap;html=1;fontSize=16;" vertex="1" parent="1">
          <mxGeometry x="-126" y="500" width="120" height="60" as="geometry" />
        </mxCell>
        <mxCell id="tGO4g8p34yawOPrG28nG-19" value="" style="edgeStyle=orthogonalEdgeStyle;rounded=0;orthogonalLoop=1;jettySize=auto;html=1;" edge="1" parent="1" source="tGO4g8p34yawOPrG28nG-17" target="tGO4g8p34yawOPrG28nG-11">
          <mxGeometry relative="1" as="geometry" />
        </mxCell>
        <mxCell id="tGO4g8p34yawOPrG28nG-17" value="i++" style="whiteSpace=wrap;html=1;fontSize=16;" vertex="1" parent="1">
          <mxGeometry x="-260" y="411" width="120" height="60" as="geometry" />
        </mxCell>
        <mxCell id="tGO4g8p34yawOPrG28nG-24" value="" style="edgeStyle=orthogonalEdgeStyle;rounded=0;orthogonalLoop=1;jettySize=auto;html=1;" edge="1" parent="1" source="tGO4g8p34yawOPrG28nG-21" target="tGO4g8p34yawOPrG28nG-23">
          <mxGeometry relative="1" as="geometry">
            <Array as="points">
              <mxPoint x="-402" y="580" />
              <mxPoint x="-199" y="580" />
            </Array>
          </mxGeometry>
        </mxCell>
        <mxCell id="tGO4g8p34yawOPrG28nG-21" value="string[] newArray = new string[newSize],&lt;br&gt;index = 0,&lt;br&gt;i = 0" style="whiteSpace=wrap;html=1;fontSize=16;" vertex="1" parent="1">
          <mxGeometry x="-483" y="411" width="162" height="82" as="geometry" />
        </mxCell>
        <mxCell id="tGO4g8p34yawOPrG28nG-26" value="да" style="edgeStyle=orthogonalEdgeStyle;rounded=0;orthogonalLoop=1;jettySize=auto;html=1;" edge="1" parent="1" source="tGO4g8p34yawOPrG28nG-23" target="tGO4g8p34yawOPrG28nG-25">
          <mxGeometry x="-0.8421" y="12" relative="1" as="geometry">
            <mxPoint as="offset" />
          </mxGeometry>
        </mxCell>
        <mxCell id="tGO4g8p34yawOPrG28nG-35" value="" style="edgeStyle=orthogonalEdgeStyle;rounded=0;orthogonalLoop=1;jettySize=auto;html=1;" edge="1" parent="1" source="tGO4g8p34yawOPrG28nG-23" target="tGO4g8p34yawOPrG28nG-34">
          <mxGeometry relative="1" as="geometry" />
        </mxCell>
        <mxCell id="tGO4g8p34yawOPrG28nG-23" value="i &amp;lt; size" style="rhombus;whiteSpace=wrap;html=1;fontSize=16;" vertex="1" parent="1">
          <mxGeometry x="-290" y="643" width="182" height="80" as="geometry" />
        </mxCell>
        <mxCell id="tGO4g8p34yawOPrG28nG-29" value="нет" style="edgeStyle=orthogonalEdgeStyle;rounded=0;orthogonalLoop=1;jettySize=auto;html=1;" edge="1" parent="1" source="tGO4g8p34yawOPrG28nG-25" target="tGO4g8p34yawOPrG28nG-28">
          <mxGeometry x="-0.726" y="-11" relative="1" as="geometry">
            <mxPoint x="1" as="offset" />
          </mxGeometry>
        </mxCell>
        <mxCell id="tGO4g8p34yawOPrG28nG-32" value="да" style="edgeStyle=orthogonalEdgeStyle;rounded=0;orthogonalLoop=1;jettySize=auto;html=1;entryX=1;entryY=0.5;entryDx=0;entryDy=0;" edge="1" parent="1" source="tGO4g8p34yawOPrG28nG-25" target="tGO4g8p34yawOPrG28nG-31">
          <mxGeometry x="-0.7917" y="17" relative="1" as="geometry">
            <mxPoint as="offset" />
          </mxGeometry>
        </mxCell>
        <mxCell id="tGO4g8p34yawOPrG28nG-25" value="&lt;span style=&quot;color: rgb(0, 0, 0); font-family: Helvetica; font-size: 16px; font-style: normal; font-variant-ligatures: normal; font-variant-caps: normal; font-weight: 400; letter-spacing: normal; orphans: 2; text-align: center; text-indent: 0px; text-transform: none; widows: 2; word-spacing: 0px; -webkit-text-stroke-width: 0px; background-color: rgb(255, 255, 255); text-decoration-thickness: initial; text-decoration-style: initial; text-decoration-color: initial; float: none; display: inline !important;&quot;&gt;array[i].Length &amp;lt; sizeFilter&lt;/span&gt;" style="rhombus;whiteSpace=wrap;html=1;fontSize=16;" vertex="1" parent="1">
          <mxGeometry x="-17" y="761" width="241" height="80" as="geometry" />
        </mxCell>
        <mxCell id="tGO4g8p34yawOPrG28nG-30" value="" style="edgeStyle=orthogonalEdgeStyle;rounded=0;orthogonalLoop=1;jettySize=auto;html=1;" edge="1" parent="1" source="tGO4g8p34yawOPrG28nG-28" target="tGO4g8p34yawOPrG28nG-23">
          <mxGeometry relative="1" as="geometry" />
        </mxCell>
        <mxCell id="tGO4g8p34yawOPrG28nG-28" value="i++" style="whiteSpace=wrap;html=1;fontSize=16;" vertex="1" parent="1">
          <mxGeometry x="-259" y="771" width="120" height="60" as="geometry" />
        </mxCell>
        <mxCell id="tGO4g8p34yawOPrG28nG-33" style="edgeStyle=orthogonalEdgeStyle;rounded=0;orthogonalLoop=1;jettySize=auto;html=1;exitX=0;exitY=0.5;exitDx=0;exitDy=0;entryX=0.5;entryY=1;entryDx=0;entryDy=0;" edge="1" parent="1" source="tGO4g8p34yawOPrG28nG-31" target="tGO4g8p34yawOPrG28nG-28">
          <mxGeometry relative="1" as="geometry" />
        </mxCell>
        <mxCell id="tGO4g8p34yawOPrG28nG-31" value="newArray[index] = array[i],&lt;br&gt;index++" style="whiteSpace=wrap;html=1;fontSize=16;" vertex="1" parent="1">
          <mxGeometry x="-133" y="890" width="192" height="60" as="geometry" />
        </mxCell>
        <mxCell id="tGO4g8p34yawOPrG28nG-37" value="" style="edgeStyle=orthogonalEdgeStyle;rounded=0;orthogonalLoop=1;jettySize=auto;html=1;" edge="1" parent="1" source="tGO4g8p34yawOPrG28nG-34" target="tGO4g8p34yawOPrG28nG-36">
          <mxGeometry relative="1" as="geometry">
            <Array as="points">
              <mxPoint x="-396" y="1024" />
              <mxPoint x="-172" y="1024" />
            </Array>
          </mxGeometry>
        </mxCell>
        <mxCell id="tGO4g8p34yawOPrG28nG-34" value="newArray" style="shape=document;whiteSpace=wrap;html=1;boundedLbl=1;fontSize=16;" vertex="1" parent="1">
          <mxGeometry x="-456" y="769" width="120" height="80" as="geometry" />
        </mxCell>
        <mxCell id="tGO4g8p34yawOPrG28nG-36" value="Конец" style="rounded=1;whiteSpace=wrap;html=1;fontSize=16;" vertex="1" parent="1">
          <mxGeometry x="-232" y="1073" width="120" height="60" as="geometry" />
        </mxCell>
      </root>
    </mxGraphModel>
  </diagram>
</mxfile>
